# xmcd
#
# Track frame offsets: 
#        150
#        11442
#        22922
#        45412
#        60800
#        72932
#        82820
#        92502
#        108752
#        121472
#        135020
#        149747
#
# Disc length: 2063 seconds
#
# Revision: 1
# Processed by: cddbd v1.5.2PL0 Copyright (c) Steve Scherf et al.
# Submitted via: ExactAudioCopy v0.99pb5
#
DISCID=84080d0c
DTITLE=Neko Case - The Tigers Have Spoken
DYEAR=2004
DGENRE=Alternative
TTITLE0=If You Knew
TTITLE1=Soulful Shade Of Blue
TTITLE2=Hex
TTITLE3=Train From Kansas City
TTITLE4=The Tigers Have Spoken
TTITLE5=Blacklisted
TTITLE6=Loretta
TTITLE7=Favorite
TTITLE8=Rated X
TTITLE9=This Little Light
TTITLE10=Wayfaring Stranger
TTITLE11=Tigers Are Noble
EXTD=YEAR: 2004
EXTT0=
EXTT1=
EXTT2=
EXTT3=
EXTT4=
EXTT5=
EXTT6=
EXTT7=
EXTT8=
EXTT9=
EXTT10=
EXTT11=
PLAYORDER=
